<svg class="faux code" xmlns="http://www.w3.org/2000/svg" xmlns:xlink="http://www.w3.org/1999/xlink" width="525" height="230" viewBox="0 0 525 230">
  <rect x="0" y="0" width="525" height="230" fill="#534bae" />
  <g class="code block" stroke-linecap="round" stroke-width="5">
    <g class="code line">
      <line x1="47.5" y1="50" x2="67.5" y2="50" stroke="#d1d5da" />
      <line x1="72.5" y1="50" x2="117.5" y2="50" stroke="#d1d5da" />
      <line x1="127.5" y1="50" x2="127.5" y2="50" stroke="#d1d5da" />
      <line x1="137.5" y1="50" x2="252.5" y2="50" stroke="#d1d5da" />
      <line x1="262.5" y1="50" x2="262.5" y2="50" stroke="#d1d5da" />
      <line x1="272.5" y1="50" x2="317.5" y2="50" stroke="#d1d5da" />
      <line x1="327.5" y1="50" x2="332.5" y2="50" stroke="#d1d5da" />
      <line x1="342.5" y1="50" x2="387.5" y2="50" stroke="#d1d5da" />
      <line x1="397.5" y1="50" x2="402.5" y2="50" stroke="#d1d5da" />
    </g>
    <g class="code line">
      <line x1="112.5" y1="60" x2="122.5" y2="60" stroke="#d1d5da" />
      <line x1="132.5" y1="60" x2="207.5" y2="60" stroke="#d1d5da" />
      <line x1="217.5" y1="60" x2="217.5" y2="60" stroke="#d1d5da" />
      <line x1="227.5" y1="60" x2="272.5" y2="60" stroke="#d1d5da" />
      <line x1="277.5" y1="60" x2="307.5" y2="60" stroke="#1a237e" />
      <line x1="312.5" y1="60" x2="317.5" y2="60" stroke="#d1d5da" />
      <line x1="322.5" y1="60" x2="337.5" y2="60" stroke="#d1d5da" />
      <line x1="342.5" y1="60" x2="342.5" y2="60" stroke="#d1d5da" />
      <line x1="352.5" y1="60" x2="367.5" y2="60" stroke="#d1d5da" />
      <line x1="377.5" y1="60" x2="427.5" y2="60" stroke="#d1d5da" />
      <line x1="437.5" y1="60" x2="472.5" y2="60" stroke="#d1d5da" />
    </g>
    <g class="code line">
      <line x1="132.5" y1="70" x2="132.5" y2="70" stroke="#d1d5da" />
      <line x1="137.5" y1="70" x2="192.5" y2="70" stroke="#1a237e" />
      <line x1="197.5" y1="70" x2="287.5" y2="70" stroke="#d1d5da" />
      <line x1="297.5" y1="70" x2="297.5" y2="70" stroke="#d1d5da" />
      <line x1="307.5" y1="70" x2="352.5" y2="70" stroke="#d1d5da" />
      <line x1="362.5" y1="70" x2="367.5" y2="70" stroke="#d1d5da" />
    </g>
    <g class="code line">
      <line x1="152.5" y1="80" x2="157.5" y2="80" stroke="#1C2AB1" />
      <line x1="167.5" y1="80" x2="177.5" y2="80" stroke="#d1d5da" />
      <line x1="187.5" y1="80" x2="207.5" y2="80" stroke="#d1d5da" />
      <line x1="217.5" y1="80" x2="217.5" y2="80" stroke="#d1d5da" />
      <line x1="227.5" y1="80" x2="267.5" y2="80" stroke="#d1d5da" />
      <line x1="272.5" y1="80" x2="297.5" y2="80" stroke="#d1d5da" />
      <line x1="302.5" y1="80" x2="302.5" y2="80" stroke="#d1d5da" />
      <line x1="307.5" y1="80" x2="327.5" y2="80" stroke="#d1d5da" />
      <line x1="337.5" y1="80" x2="337.5" y2="80" stroke="#d1d5da" />
    </g>
    <g class="code line">
      <line x1="172.5" y1="90" x2="212.5" y2="90" stroke="#d1d5da" />
      <line x1="217.5" y1="90" x2="242.5" y2="90" stroke="#1a237e" />
      <line x1="247.5" y1="90" x2="277.5" y2="90" stroke="#d1d5da" />
    </g>
    <g class="code line">
      <line x1="172.5" y1="100" x2="212.5" y2="100" stroke="#d1d5da" />
      <line x1="217.5" y1="100" x2="267.5" y2="100" stroke="#1a237e" />
      <line x1="272.5" y1="100" x2="277.5" y2="100" stroke="#d1d5da" />
    </g>
    <g class="code line">
      <line x1="152.5" y1="110" x2="152.5" y2="110" stroke="#d1d5da" />
      <line x1="157.5" y1="110" x2="172.5" y2="110" stroke="#1C2AB1" />
      <line x1="182.5" y1="110" x2="187.5" y2="110" stroke="#1C2AB1" />
      <line x1="197.5" y1="110" x2="207.5" y2="110" stroke="#d1d5da" />
      <line x1="217.5" y1="110" x2="237.5" y2="110" stroke="#d1d5da" />
      <line x1="247.5" y1="110" x2="247.5" y2="110" stroke="#d1d5da" />
      <line x1="257.5" y1="110" x2="297.5" y2="110" stroke="#d1d5da" />
      <line x1="302.5" y1="110" x2="327.5" y2="110" stroke="#d1d5da" />
      <line x1="332.5" y1="110" x2="332.5" y2="110" stroke="#d1d5da" />
      <line x1="337.5" y1="110" x2="357.5" y2="110" stroke="#d1d5da" />
      <line x1="367.5" y1="110" x2="367.5" y2="110" stroke="#d1d5da" />
    </g>
    <g class="code line">
      <line x1="172.5" y1="120" x2="212.5" y2="120" stroke="#d1d5da" />
      <line x1="217.5" y1="120" x2="247.5" y2="120" stroke="#1a237e" />
      <line x1="252.5" y1="120" x2="282.5" y2="120" stroke="#d1d5da" />
    </g>
    <g class="code line">
      <line x1="152.5" y1="130" x2="152.5" y2="130" stroke="#d1d5da" />
    </g>
    <g class="code line">
      <line x1="132.5" y1="140" x2="137.5" y2="140" stroke="#d1d5da" />
    </g>
    <g class="code line">
      <line x1="112.5" y1="150" x2="137.5" y2="150" stroke="#1C2AB1" />
      <line x1="147.5" y1="150" x2="237.5" y2="150" stroke="#d1d5da" />
      <line x1="247.5" y1="150" x2="247.5" y2="150" stroke="#d1d5da" />
    </g>
    <g class="code line">
      <line x1="132.5" y1="160" x2="212.5" y2="160" stroke="#d1d5da" />
      <line x1="217.5" y1="160" x2="242.5" y2="160" stroke="#1a237e" />
      <line x1="247.5" y1="160" x2="252.5" y2="160" stroke="#d1d5da" />
    </g>
    <g class="code line">
      <line x1="112.5" y1="170" x2="112.5" y2="170" stroke="#d1d5da" />
    </g>
    <g class="code line">
      <line x1="92.5" y1="180" x2="92.5" y2="180" stroke="#d1d5da" />
    </g>
  </g>  <g class="line numbers" stroke="#959da5" stroke-linecap="round" stroke-width="5">
      <line x1="32.5" y1="50" x2="32.5" y2="50" />
      <line x1="32.5" y1="60" x2="32.5" y2="60" />
      <line x1="32.5" y1="70" x2="32.5" y2="70" />
      <line x1="32.5" y1="80" x2="32.5" y2="80" />
      <line x1="32.5" y1="90" x2="32.5" y2="90" />
      <line x1="32.5" y1="100" x2="32.5" y2="100" />
      <line x1="32.5" y1="110" x2="32.5" y2="110" />
      <line x1="32.5" y1="120" x2="32.5" y2="120" />
      <line x1="32.5" y1="130" x2="32.5" y2="130" />
      <line x1="32.5" y1="140" x2="27.5" y2="140" />
      <line x1="32.5" y1="150" x2="27.5" y2="150" />
      <line x1="32.5" y1="160" x2="27.5" y2="160" />
      <line x1="32.5" y1="170" x2="27.5" y2="170" />
      <line x1="32.5" y1="180" x2="27.5" y2="180" />
  </g>
</svg>