<?xml version="1.0" encoding="utf-8"?>
<!-- Generator: Adobe Illustrator 24.0.1, SVG Export Plug-In . SVG Version: 6.00 Build 0)  -->
<svg version="1.1" id="_x31_dff4cb4-53bd-4ffc-acc1-5e8a2ceb72de"
	 xmlns="http://www.w3.org/2000/svg" xmlns:xlink="http://www.w3.org/1999/xlink" x="0px" y="0px" viewBox="0 0 864.8 658.5" width="100%"
	 style="enable-background:new 0 0 864.8 658.5;" xml:space="preserve">
<g class="st0">
	
		<linearGradient id="SVGID_1_" gradientUnits="userSpaceOnUse" x1="477.0436" y1="-121.3271" x2="477.0436" y2="537.1397" gradientTransform="matrix(1 0 0 -1 -167.6 537.1097)">
		<stop  offset="0" style="stop-color:#808080;stop-opacity:0.25"/>
		<stop  offset="0.54" style="stop-color:#808080;stop-opacity:0.12"/>
		<stop  offset="1" style="stop-color:#808080;stop-opacity:0.1"/>
	</linearGradient>
	<path class="st1" d="M338.8,353.2l-0.6-0.1v-22.6c46.6-11.5,81.9-49.7,89.8-97.1h0.3c5.8,0,10.4-8.8,10.4-19.6
		c0-6.7-1.8-12.6-4.5-16.1c0.4-4.1,0.6-8.3,0.6-12.6c0-34.2-13.9-66.9-38.6-90.5c-1.7-8.4-4.7-16.4-8.9-23.8
		c-8.9-15.7-23.7-32-17.7-49l-39.1,4L330.2,0c-12.2,2.2-17.3,16.3-24.5,26.4c-17.4,24.2-52.4,27.6-75.5,46.4
		c-7.9,6.4-25.5,25.9-22.2,38.7c-15.5,21.4-23.9,47.1-23.8,73.5c0,4.2,0.2,8.4,0.6,12.6c-2.7,3.5-4.5,9.4-4.5,16.1
		c0,10.8,4.7,19.6,10.4,19.6h0.3c7.8,47.4,43.2,85.6,89.8,97.1V353l-0.6,0.1c-13.5-1.6-149.3-11.9-119.5,211.5l18.3,67.4l4.1-0.2
		c1.2,15.8,15.1,27.6,30.9,26.4c12.2-1,22.4-9.5,25.5-21.3c25.9-0.1,55.1-0.2,70-0.2s44.2,0.1,70,0.2c4,15.4,19.7,24.6,35,20.6
		c11.9-3.1,20.5-13.4,21.4-25.7l4.1,0.2l18.3-67.4C488.1,341.2,352.3,351.6,338.8,353.2z"/>
</g>
<rect y="625.2" class="st2" width="645.6" height="21.9"/>
<rect x="27.4" y="647" class="st2" width="590.9" height="9"/>
<rect x="27.4" y="647" class="st3" width="590.9" height="3"/>
<path class="st3" d="M193.4,626.8c0,0,86.6-0.3,116.1-0.3s116.1,0.3,116.1,0.3v-12.6H193.4V626.8z"/>
<path class="st4" d="M425.6,624.3c0,0-86.6-0.3-116.1-0.3s-116.1,0.3-116.1,0.3V465c0-64.1,52-116.1,116.1-116.1l0,0
	c64.1,0,116.1,52,116.1,116.1c0,0,0,0,0,0V624.3z"/>
<path class="st5" d="M298.5,290.8h22c9.3,0,16.8,7.5,16.8,16.8c0,0,0,0,0,0v46.3c0,15.3-12.4,27.8-27.8,27.8c0,0,0,0,0,0l0,0
	c-15.3,0-27.8-12.4-27.8-27.8c0,0,0,0,0,0v-46.3C281.7,298.3,289.2,290.8,298.5,290.8C298.5,290.8,298.5,290.8,298.5,290.8z"/>
<path class="st3" d="M281.7,332.9c18.2,4.5,37.3,4.5,55.5,0v-39.5h-55.5V332.9z"/>
<circle class="st6" cx="309.5" cy="189.9" r="121.1"/>
<circle class="st5" cx="309.5" cy="217.6" r="116.1"/>
<path class="st6" d="M232.8,81.4c22.3-18.2,56.1-21.5,72.9-44.9c7-9.7,11.9-23.4,23.7-25.5l0.4,24.9l37.8-3.9
	c-5.8,16.4,8.5,32.2,17.1,47.4c6.3,11.2,9.8,23.8,10.1,36.7c-13.1,7.9-29.4-0.7-44-5.3c-14.2-4.5-29.3-4.9-44.2-5.3
	c-7.6-0.2-15.4-0.4-22.8,1.3c-6.5,1.5-12.6,4.3-18.8,6.9c-10,4.2-41.8,20.1-51.1,9.9C203.3,111.8,224.2,88.4,232.8,81.4z"/>
<path class="st3" d="M239.1,159.4c6.2,3.7,13.4,5.2,20.5,6.2c29.7,4.1,60,0.7,88.1-9.9c4.6,11.7,15.8,19.7,27.8,23.5
	s24.7,4,37.2,4.1c2.8,0,5.7,0,8-1.5c5.6-3.8,2.9-12.4-0.4-18.3l-16.2-29.3c-4.8-8.7-9.7-17.5-17.1-24.1
	c-9.3-8.2-21.6-12.1-33.8-14.5c-28.7-5.7-58.4-4.7-86.6,2.9C236.5,106.7,197.7,134.3,239.1,159.4z"/>
<path class="st6" d="M239.1,156.9c6.2,3.7,13.4,5.2,20.5,6.2c29.7,4.1,60,0.7,88.1-9.9c4.6,11.7,15.8,19.7,27.8,23.5
	s24.7,4,37.2,4.1c2.8,0,5.7,0,8-1.5c5.6-3.8,2.9-12.4-0.4-18.3l-16.2-29.3c-4.8-8.7-9.7-17.5-17.1-24.1
	c-9.3-8.2-21.6-12.1-33.8-14.5c-28.7-5.7-58.4-4.7-86.6,2.9C236.5,104.2,197.7,131.8,239.1,156.9z"/>
<ellipse class="st5" cx="424.3" cy="217.6" rx="10.1" ry="18.9"/>
<ellipse class="st5" cx="194.7" cy="217.6" rx="10.1" ry="18.9"/>
<path class="st4" d="M336.8,352.5c0,0,146.8-22.9,116.6,204.3l-17.7,65.1l-50.5-2c0,0,32.8-75.7,12.6-126.2S336.8,352.5,336.8,352.5
	z"/>
<path class="st4" d="M282.2,352.5c0,0-146.8-22.9-116.6,204.3l17.7,65.1l50.5-2c0,0-32.8-75.7-12.6-126.2S282.2,352.5,282.2,352.5z"
	/>
<path class="st3" d="M218.6,452.6c0,0-10.1,78,7.6,100.7"/>
<path class="st3" d="M400.4,454.6c0,0,10.1,76-7.6,98.7"/>
<circle class="st5" cx="404.1" cy="619.7" r="27.8"/>
<circle class="st5" cx="214.9" cy="619.7" r="27.8"/>
<g class="st0">
	
		<linearGradient id="SVGID_2_" gradientUnits="userSpaceOnUse" x1="309.425" y1="34.8898" x2="309.425" y2="196.8898" gradientTransform="matrix(1 0 0 -1 0 657.8898)">
		<stop  offset="0" style="stop-color:#808080;stop-opacity:0.25"/>
		<stop  offset="0.54" style="stop-color:#808080;stop-opacity:0.12"/>
		<stop  offset="1" style="stop-color:#808080;stop-opacity:0.1"/>
	</linearGradient>
	<path class="st7" d="M239.4,461h140.1c11.8,0,21.3,9.6,21.3,21.3v119.3c0,11.8-9.6,21.3-21.3,21.3H239.4
		c-11.8,0-21.3-9.6-21.3-21.3V482.3C218,470.6,227.6,461,239.4,461z"/>
</g>
<path class="st2" d="M242.8,464h133.3c11.8,0,21.3,9.6,21.3,21.3v113.3c0,11.8-9.6,21.3-21.3,21.3H242.8c-11.8,0-21.3-9.6-21.3-21.3
	V485.3C221.4,473.6,231,464,242.8,464z"/>
<g id="Layer_2_1_">
	<g id="Layer_1-2">
		<path class="st8" d="M369.6,549c-1.5,1.6-2.8,3-4.1,4.4c-4.3,4.3-8.7,8.6-13,13c-0.4,0.5-1.1,0.7-1.8,0.5
			c-5.4-1.2-10.8-2.2-16.2-3.4c-0.4-0.1-0.8-0.7-1.1-1.1c-0.3-0.8-0.7-1.5-1.2-2.2c-0.6-0.5-0.8-1.3-0.6-2.1
			c1.1-6.4,2-12.7,3.1-19.1c0-0.4,0.6-0.8,1-1.1c0.8-0.6,1.7-1.1,2.5-1.5c0.4-0.2,0.8-0.3,1.3-0.3c7.2,3,14.4,6.1,21.6,9.2
			C363.9,546.5,366.6,547.7,369.6,549z"/>
		<path class="st8" d="M267.2,525.6c1.9-1.9,3.8-3.7,5.7-5.5c2.5-2.5,5.1-5,7.5-7.6c0.5-0.7,1.5-0.9,2.2-0.4
			c5.1,2.2,10.3,4.4,15.5,6.6c0.8,0.2,1.2,0.9,1.2,1.7c0.2,1.4,0.6,2.8,1.2,4.1c0.3,0.6,0.5,1,0.1,1.7c-4.6,7.1-9.1,14.2-13.7,21.2
			c-0.2,0.6-0.9,0.8-1.4,0.6c-0.4-0.2-0.9-0.2-1.4-0.1c-1.3,0.4-1.9-0.2-2.5-1.2c-4.4-6.6-9-13.2-13.5-19.7
			C267.8,526.5,267.5,526.1,267.2,525.6z"/>
		<path class="st8" d="M325.8,569.5c-0.6,3.6-1.3,7.8-1.9,11.9c-0.9,5.2-1.6,10.4-2.6,15.6c-0.2,1.1-1.5,2.1-2.4,3.3
			c-0.6-0.8-1-1.4-1.4-1.9c-8.8-12.7-17.5-25.4-26.3-38.1c-0.2-0.5-0.4-1-0.5-1.5c0.6-0.2,1.1-0.2,1.7-0.2c9.7,2,19.3,4,29,6
			c0.8,0.1,1.4,0.6,1.7,1.3C323.8,567.2,324.7,568.4,325.8,569.5z"/>
		<path class="st8" d="M315.9,603c-1.6,1.5-2.9,3.1-5.1,3.4c-2,0.4-4-0.3-5.4-1.8c-3.4-3.3-6.8-6.7-10.2-10.1
			c-6.6-6.6-13.3-13.3-20-19.9c-0.7-0.4-0.8-1.3-0.4-2c0.1-0.1,0.1-0.2,0.2-0.2c2.1-3.2,4.2-6.4,6.2-9.6c0.3-0.6,1-0.9,1.6-0.7
			c1.2,0.1,2.5,0.1,3.7-0.2c0.6-0.2,1.2,0,1.5,0.6c1.8,2.7,3.6,5.3,5.4,8c2.6,3.9,5.3,7.8,8,11.7C306.1,589.1,311,596,315.9,603z"/>
		<path class="st9" d="M320.6,494.7c-4.1,6.4-8.3,12.9-12.6,19.5c-0.3,0.3-0.7,0.5-1.1,0.5c-1.8-0.3-3.6,0-5.1,0.9
			c-0.4,0.2-0.8,0.3-1.3,0.2c-5.3-2.2-10.7-4.5-16-6.8c-0.1,0-0.1-0.1-0.4-0.5c0.5-0.4,1.1-0.9,1.7-1.4l17.2-17.2
			c0.8-0.8,1.6-1.6,2.5-2.3c2.2-2.3,5.9-2.3,8.2,0c0,0,0,0,0,0C316.1,489.7,318.3,492.1,320.6,494.7z"/>
		<path class="st8" d="M291.7,553.1c4.7-2,9.4-3.9,14.1-5.9c7.7-3.3,15.4-6.6,23-9.9c0.3-0.1,0.5-0.3,0.8-0.3
			c0.9-0.3,1.6,0.2,1.5,1.2c-1.1,6.7-2.2,13.3-3.3,20.1c-1.8,0.2-3.4,1.1-4.4,2.5c-0.2,0.2-0.8,0.3-1.3,0.2
			c-8.6-1.7-17.2-3.5-25.8-5.3c-0.9-0.3-1.9-0.4-2.8-0.6C292.2,555,291.7,554.4,291.7,553.1z"/>
		<path class="st9" d="M323.7,497.2l5.4,5.4c2,2,4,3.9,5.9,6c0.3,0.4,0.5,0.9,0.5,1.3c-0.8,5.4-1.7,10.8-2.5,16.2
			c-0.2,1.3-1.5,2.2-2.8,1.9c-0.1,0-0.3-0.1-0.4-0.1c-5.5-2.4-11.1-4.7-16.7-7.1c-0.8-0.3-1-0.9-1.4-1.6c-1.2-2-0.2-3.4,0.9-5.1
			c3.5-5.3,6.9-10.7,10.4-16.1C323.1,497.8,323.4,497.5,323.7,497.2z"/>
		<path class="st8" d="M289.8,549.4l6.9-10.7c2.3-3.6,4.7-7.2,7-10.8c0.3-0.7,1-1,1.7-1c2,0.2,3.9-0.7,5.1-2.3
			c0.3-0.5,0.9-0.7,1.4-0.4c0,0,0,0,0.1,0c5.2,2.2,10.5,4.4,15.7,6.7c0.5,0.2,1,0.4,1,1.3c0,0.9-0.4,1.1-1,1.3
			c-9.8,4.1-19.6,8.3-29.4,12.4l-8.2,3.5L289.8,549.4z"/>
		<path class="st8" d="M249.1,545.7c0.4-1.2,0.9-2.2,1.6-3.2c4.4-4.6,8.9-9.1,13.4-13.6c0,0,0.2,0,0.3-0.1c0.4,0.6,0.9,1.3,1.3,1.9
			c3.4,4.9,6.8,9.9,10.2,14.8c0.9,1.3,1.8,2.4,2.6,3.7c0.2,0.3,0.3,1,0.1,1.2c-0.5,0.5-0.6,1.7-1.8,1.5c-9.1-1.9-18.1-3.8-27.1-5.7
			C249.8,545.9,249.7,545.9,249.1,545.7z"/>
		<path class="st8" d="M326.1,591.9c0.3-1.9,0.7-4.3,1.1-6.7c0.8-5,1.6-9.9,2.4-14.9c0.2-0.8,0.6-1.6,1.3-2.1
			c1.4-1.3,2.8-1.2,4.5-0.8c4.3,1,8.6,1.8,12.6,2.5L326.1,591.9z"/>
		<path class="st8" d="M369.6,544.7c-2.8-1.2-5.7-2.3-8.5-3.5l-19.3-8.2c-0.4-0.2-0.8-0.4-1.5-0.7c0.6-0.3,0.9-0.5,1.3-0.6
			c3.6-1.5,7.2-3,10.7-4.6c0.5-0.3,1.2-0.2,1.5,0.2c4.6,4.7,9.2,9.3,13.8,14c0.8,1,1.5,2.1,2,3.2L369.6,544.7z"/>
		<path class="st8" d="M251,550.1l25.4,5.3c-0.3,0.2-0.7,0.4-1,0.6c-4.1,1.8-8.2,3.5-12.4,5.2c-0.4,0.2-0.9,0.1-1.3-0.1
			c-3.5-3.4-6.9-6.9-10.3-10.3C251.2,550.7,251.2,550.5,251,550.1z"/>
		<path class="st8" d="M338.9,512.9l11.2,11.2c-3.6,1.5-7.4,3.2-11.1,4.7c-1.1,0.4-2.5-1.1-2.3-2.3c0.5-3.3,1.1-6.6,1.6-9.9
			L338.9,512.9z"/>
		<path class="st8" d="M271.6,570.8l-6.4-6.4l2.1-0.9c3.3-1.4,6.5-2.8,9.8-4.2c0.4-0.1,0.8-0.1,1.2,0c0,0.4,0.1,0.9-0.1,1.3
			C276,564,273.8,567.4,271.6,570.8z"/>
		<path class="st8" d="M369.7,544.6v0.2l-0.1-0.1L369.7,544.6z"/>
	</g>
</g>
<g class="st0">
	
		<linearGradient id="SVGID_3_" gradientUnits="userSpaceOnUse" x1="773.425" y1="108.8898" x2="773.425" y2="270.8898" gradientTransform="matrix(1 0 0 -1 0 657.8898)">
		<stop  offset="0" style="stop-color:#808080;stop-opacity:0.25"/>
		<stop  offset="0.54" style="stop-color:#808080;stop-opacity:0.12"/>
		<stop  offset="1" style="stop-color:#808080;stop-opacity:0.1"/>
	</linearGradient>
	<path class="st10" d="M703.4,387h140.1c11.8,0,21.3,9.6,21.3,21.3v119.3c0,11.8-9.6,21.3-21.3,21.3H703.4
		c-11.8,0-21.3-9.6-21.3-21.3V408.3C682,396.6,691.6,387,703.4,387z"/>
</g>
<path class="st2" d="M706.8,390h133.3c11.8,0,21.3,9.6,21.3,21.3v113.3c0,11.8-9.6,21.3-21.3,21.3H706.8c-11.8,0-21.3-9.6-21.3-21.3
	V411.3C685.4,399.6,695,390,706.8,390z"/>
<path class="st11" d="M742,456.2c0,1.4,0.1,2.9,0.5,4.3c0.4,1.2,0.9,2.3,1.5,3.5c0.2,0.3,0.3,0.7,0.3,1.1c-0.1,0.6-0.4,1.1-0.9,1.4
	l-3,2c-0.4,0.3-0.8,0.4-1.3,0.4c-0.5,0-1.1-0.3-1.4-0.7c-0.6-0.7-1.2-1.4-1.7-2.3c-0.5-0.8-1-1.7-1.5-2.8c-3.4,4.3-8.6,6.7-14.1,6.6
	c-4,0-7.2-1.2-9.6-3.5c-5-5.5-4.7-14,0.8-19.1c2.9-2.5,6.8-3.7,11.7-3.7c1.7,0,3.4,0.1,5.1,0.4c1.8,0.2,3.6,0.6,5.5,1v-3.5
	c0-3.6-0.8-6.2-2.3-7.7s-4.1-2.2-7.8-2.2c-1.7,0-3.5,0.2-5.2,0.6c-1.8,0.4-3.5,1-5.2,1.6c-0.5,0.2-1.1,0.5-1.7,0.6
	c-0.2,0.1-0.5,0.1-0.8,0.1c-0.7,0-1-0.5-1-1.5v-2.3c-0.1-0.6,0.1-1.2,0.3-1.7c0.4-0.4,0.8-0.8,1.3-1c1.9-0.9,3.9-1.7,6-2.2
	c2.4-0.6,5-0.9,7.5-0.9c5.7,0,9.9,1.3,12.6,3.9c2.7,2.6,4,6.5,4,11.8L742,456.2L742,456.2z M722.6,463.5c1.7,0,3.3-0.3,4.9-0.9
	c1.8-0.6,3.3-1.7,4.5-3.1c0.8-0.9,1.3-1.9,1.6-3.1c0.3-1.4,0.5-2.8,0.5-4.2v-2c-1.5-0.4-2.9-0.6-4.4-0.8c-1.5-0.2-3-0.3-4.5-0.3
	c-3.2,0-5.6,0.6-7.1,1.9c-3.1,2.2-3.7,6.5-1.5,9.6C718,462.6,720.2,463.7,722.6,463.5L722.6,463.5z M761,468.7
	c-0.6,0.1-1.3-0.1-1.8-0.5c-0.5-0.5-0.8-1.2-1-1.9l-11.3-37c-0.2-0.6-0.4-1.3-0.4-1.9c-0.1-0.6,0.3-1.1,0.9-1.2c0.1,0,0.2,0,0.3,0
	h4.7c0.7-0.1,1.3,0.1,1.9,0.5c0.5,0.5,0.8,1.2,1,1.9l8,31.7l7.5-31.7c0.1-0.7,0.4-1.4,0.9-1.9c0.6-0.4,1.2-0.5,1.9-0.5h3.8
	c0.7-0.1,1.4,0.1,1.9,0.5c0.5,0.5,0.8,1.2,0.9,1.9l7.6,32.1l8.3-32.1c0.2-0.7,0.5-1.3,1-1.9c0.6-0.4,1.2-0.5,1.9-0.5h4.4
	c0.6-0.1,1.1,0.3,1.2,0.9c0,0.1,0,0.2,0,0.3c0,0.3,0,0.5-0.1,0.8c-0.1,0.4-0.2,0.8-0.3,1.2l-11.5,37c-0.1,0.7-0.5,1.4-1,1.9
	c-0.5,0.3-1.2,0.5-1.8,0.5h-4.1c-0.7,0.1-1.4-0.1-1.9-0.5c-0.5-0.5-0.8-1.2-0.9-1.9l-7.4-30.9l-7.4,30.8c-0.1,0.7-0.4,1.4-0.9,1.9
	c-0.6,0.4-1.2,0.5-1.9,0.5L761,468.7z M822.6,470c-2.5,0-5-0.3-7.4-0.9c-1.9-0.4-3.8-1-5.5-1.9c-0.6-0.3-1.1-0.8-1.5-1.3
	c-0.2-0.4-0.3-0.9-0.3-1.3v-2.4c0-1,0.4-1.5,1.1-1.5c0.3,0,0.6,0,0.9,0.1c0.3,0.1,0.7,0.3,1.2,0.5c1.7,0.7,3.5,1.3,5.3,1.7
	c1.9,0.4,3.8,0.6,5.7,0.6c2.4,0.1,4.9-0.4,7-1.6c1.6-1,2.5-2.7,2.5-4.5c0-1.2-0.4-2.5-1.3-3.3c-1.4-1.2-3.1-2-4.8-2.5l-7-2.2
	c-3.5-1.1-6.1-2.7-7.7-4.9c-1.5-2-2.4-4.4-2.4-6.9c0-1.9,0.4-3.7,1.3-5.3c0.9-1.5,2-2.9,3.4-3.9c1.5-1.1,3.2-2,5-2.5
	c2-0.6,4-0.8,6-0.8c1.1,0,2.1,0.1,3.2,0.2c1.1,0.1,2.1,0.3,3.1,0.5s1.9,0.5,2.7,0.8c0.7,0.2,1.4,0.5,2,0.9c0.6,0.3,1.1,0.7,1.4,1.2
	c0.3,0.5,0.5,1,0.4,1.6v2.3c0,1-0.4,1.5-1.1,1.5c-0.6-0.1-1.3-0.3-1.8-0.6c-2.9-1.3-6-1.9-9.2-1.9c-2.2-0.1-4.4,0.3-6.4,1.3
	c-1.5,0.9-2.4,2.5-2.3,4.3c0,1.3,0.5,2.5,1.4,3.4c1.6,1.2,3.3,2.1,5.3,2.6l6.8,2.2c3.4,1.1,5.9,2.6,7.4,4.6c1.5,1.9,2.2,4.3,2.2,6.7
	c0,1.9-0.4,3.8-1.3,5.6c-0.9,1.6-2,3.1-3.5,4.2c-1.6,1.2-3.4,2.1-5.3,2.7C827.1,469.6,824.8,470,822.6,470L822.6,470z"/>
<path class="st12" d="M831.6,493.2C815.8,504.9,793,511,773.3,511c-26.3,0.1-51.7-9.5-71.2-27.2c-1.5-1.3-0.1-3.2,1.6-2.1
	c38.3,22.1,84.8,25,125.6,7.8C831.9,488.4,834.2,491.3,831.6,493.2L831.6,493.2z"/>
<path class="st12" d="M838.2,485.8c-2-2.6-13.3-1.3-18.4-0.6c-1.5,0.2-1.8-1.2-0.4-2.2c9-6.3,23.8-4.5,25.5-2.4
	c1.7,2.1-0.5,17-8.9,24c-1.3,1.1-2.5,0.5-2-0.9C835.9,499,840.2,488.3,838.2,485.8z"/>
<g class="st0">
	
		<linearGradient id="SVGID_4_" gradientUnits="userSpaceOnUse" x1="664.425" y1="380.8898" x2="664.425" y2="542.8898" gradientTransform="matrix(1 0 0 -1 0 657.8898)">
		<stop  offset="0" style="stop-color:#808080;stop-opacity:0.25"/>
		<stop  offset="0.54" style="stop-color:#808080;stop-opacity:0.12"/>
		<stop  offset="1" style="stop-color:#808080;stop-opacity:0.1"/>
	</linearGradient>
	<path class="st13" d="M594.4,115h140.1c11.8,0,21.3,9.6,21.3,21.3v119.3c0,11.8-9.6,21.3-21.3,21.3H594.4
		c-11.8,0-21.3-9.6-21.3-21.3V136.3C573,124.6,582.6,115,594.4,115z"/>
</g>
<path class="st2" d="M597.8,118h133.3c11.8,0,21.3,9.6,21.3,21.3v113.3c0,11.8-9.6,21.3-21.3,21.3H597.8c-11.8,0-21.3-9.6-21.3-21.3
	V139.3C576.4,127.6,586,118,597.8,118z"/>
<path class="st14" d="M639.9,236.6l-23.7-41l23.7-41h47.3l23.7,41l-23.7,41H639.9"/>
<path class="st15" d="M664.4,214.4c-10.2,0-18.4-8.3-18.4-18.4s8.3-18.4,18.4-18.4c10.2,0,18.4,8.3,18.4,18.4
	C682.8,206.1,674.6,214.3,664.4,214.4"/>
<path class="st16" d="M701.5,140.9c-1.8-2.7-4.7-4.4-7.9-4.6h-58.3c-3.2,0.2-6.1,1.9-7.9,4.6l-17,29.5c-0.2,1.8,0.2,3.7,1.1,5.4
	l11.5,19.7l20.6-35.6h65.1c1.7,0.1,3.3,0.6,4.8,1.5L701.5,140.9"/>
<path class="st17" d="M611.1,169.2l-0.8,1.3c-0.2,1.8,0.2,3.7,1.1,5.4l11.5,19.7l6.1-10.6L611.1,169.2"/>
<path class="st15" d="M636.8,151.5c-2,0-3.6-1.6-3.6-3.6s1.6-3.6,3.6-3.6c2,0,3.6,1.6,3.6,3.6l0,0
	C640.3,149.9,638.7,151.5,636.8,151.5 M695.1,148c0,1.8-1.4,3.3-3.3,3.3c-1.8,0-3.3-1.4-3.3-3.3c0,0,0-0.1,0-0.1
	c0-1.8,1.5-3.3,3.3-3.3C693.6,144.7,695.1,146.2,695.1,148z"/>
<path class="st18" d="M730.6,191.4l-17.3-30c-1.4-0.9-3.1-1.4-4.8-1.5h-23.4l20.3,35.8l-32.1,56.8c-0.8,1.3-2,2.4-3.3,3.2h23.6
	c3.2-0.2,6.1-1.9,7.9-4.6l29.2-50.5C732.1,197.7,732.1,194.3,730.6,191.4"/>
<path class="st19" d="M714.1,162.8l-0.8-1.4c-1.4-0.9-3.1-1.4-4.8-1.5h-23.5l6.1,10.8L714.1,162.8"/>
<path class="st15" d="M691.8,246.9c-2,0-3.6-1.6-3.6-3.6s1.6-3.6,3.6-3.6c2,0,3.6,1.6,3.6,3.6l0,0
	C695.3,245.3,693.7,246.9,691.8,246.9 M719.5,199.5c-2,0-3.6-1.6-3.6-3.6s1.6-3.6,3.6-3.6c2,0,3.6,1.6,3.6,3.6l0,0
	C723,197.9,721.4,199.5,719.5,199.5"/>
<path class="st20" d="M643.9,231.5l-32.5-55.7c-0.9-1.6-1.2-3.5-1.1-5.4l-12.1,21c-1.4,2.9-1.4,6.3,0,9.1l29.2,50.5
	c1.8,2.7,4.7,4.4,7.9,4.6H670c1.3-0.8,2.5-1.8,3.3-3.2l11.9-21L643.9,231.5"/>
<path class="st21" d="M668,255.6h2c1.3-0.8,2.5-1.8,3.3-3.2l11.9-21h-12.6L668,255.6"/>
<path class="st15" d="M636.8,246.9c-2,0-3.6-1.6-3.6-3.6s1.6-3.6,3.6-3.6c2,0,3.6,1.6,3.6,3.6l0,0
	C640.3,245.3,638.7,246.9,636.8,246.9 M609,199.5c-2,0-3.6-1.6-3.6-3.6s1.6-3.6,3.6-3.6c2,0,3.6,1.6,3.6,3.6l0,0
	C612.6,197.9,611,199.5,609,199.5"/>
</svg>
