<svg xmlns="http://www.w3.org/2000/svg" viewBox="0 0 126.11 36.1" width="100%">
  <title>Galexia</title>
  <g id="Layer_2" data-name="Layer 2">
    <g id="Layer_1-2" data-name="Layer 1">
      <text class="cls-1" transform="translate(0 28)">
        GALEX <tspan class="cls-2" x="107.5" y="0" xml:space="preserve">A</tspan>
      </text>
      <path
        class="cls-3"
        d="M97,17.39c.41-5.66,3.48-9.48,8.33-12.06,1.21-.64,1.46-.43,1.52,1a19.42,19.42,0,0,1-1.6,8.13c-.73,1.83-1.46,3.68-2.39,5.48-.72.11-1.17-.66-1.91-.77-.32-1.29.81-2.54-.05-4a9.09,9.09,0,0,0-2.54,7.07c1.64-.32,1.35-1.94,2.21-2.65"
      />
      <path class="cls-3" d="M95.42,22.83a11.73,11.73,0,0,0-1.17,7.89c1-.42,1.51-1.91,3.07-1.35.45.17,1-.88,1.51-1.43a15.51,15.51,0,0,0,3.38-8" />
      <path class="cls-3" d="M98.82,18.07c-1.7-.55-2.52-.4-3.19,1a9.29,9.29,0,0,0-1.24,4.23c0,.27.1.36.35.33" />
      <path class="cls-3" d="M97.29,14.33a4.53,4.53,0,0,0-4.42,4.59" />
      <path class="cls-3" d="M104.42,17.05c1.61,1.74,1.1,3.67.51,5.61" />
      <path class="cls-3" d="M103.23,20.28a4.23,4.23,0,0,1,.85,4.92" />
      <path class="cls-3" d="M92.36,20.79c.32-2.07,2.11-3,3.42-4.23.15-.14.66.09,1,.15" />
      <path class="cls-3" d="M101.7,10.93c.82,1.5,1.76,1,2.73.21-.1-1.14-.49-2-1.74-2.27a1.82,1.82,0,0,0-1,1.89" />
    </g>
  </g>
</svg>
