<svg version="1.1" xmlns="http://www.w3.org/2000/svg" xmlns:xlink="http://www.w3.org/1999/xlink" x="0px" y="0px"
	 viewBox="0 0 127.1 36.1">
	 <style>
	 text {
    font-weight: 300;
    font-size: 32px;
    font-family: Assistant-Light, Assistant, Assistant Fallback, sans-serif;
    letter-spacing: 1.6px
  }
	</style>
<title>Galexia</title>
<g>
  <text transform="translate(0 28)">
    GALEX
    <tspan class="cls-2" x="107.5" y="0" xml:space="preserve">A</tspan>
  </text>
</g>
<g transform="translate(.5, 1280) scale(.1, -.1)">
	<path d="M990.6,12786.1c0-0.2-0.9-3.1-2-6.4c-17.6-51.8-24-91.5-24.2-150.4c0-10.3,0.1-15.5,0.4-22.7c0.1-2.9,0.1-3.9-0.2-4
		c-1.3-0.5-4.8-2.5-6.5-3.7c-8.3-6.1-13.9-17.2-16.1-32.4c-1.8-11.5-1.5-26.1,0.7-39.6c0.5-2.8,1.8-9.7,1.9-9.6c0,0,0.4,0.8,0.9,1.9
		c4.6,9.6,7.4,14,11.5,17.6c2.9,2.6,6,4.2,10,5.3c1.6,0.4,6.3,1.2,8,1.2l0.7,0l1-2.1c1.3-2.9,2.2-4.8,3.7-7.1
		c1.9-3.1,1.6-2.9,5.2-2.9c1.7,0,3.2,0.1,3.4,0.1c0.1,0.1,0.1,2,0,4.4c-0.9,16.5-1.2,48.6-0.6,56.5c0.4,4.9,1.2,7.4,2.5,7.7
		c2.1,0.6,3.4-2.3,3.9-8c0.2-3.2,0.3-5.6,0.3-13.1c0-3,0-7.3,0-9.7c0.2-9.9,0-20.7-0.5-31.6c-0.2-3.3-0.2-6.1-0.1-6.1
		s1.5-0.1,3.2-0.1c3.5,0,3.1-0.2,5,3c1.4,2.3,3,5.4,3.8,7.5c0.7,1.8,0.8,1.8,3.8,1.5c6.1-0.6,10.6-2.3,14.7-5.3
		c1.3-1,2.1-1.8,3.8-3.7c2.9-3.4,4.5-6,8.1-13.2c0.9-1.9,1.7-3.4,1.7-3.4c0.1,0,1.2,5.8,1.7,8.9c1.5,9.2,2.1,19.9,1.7,28.4
		c-0.8,18.5-5.6,32.6-13.9,41c-2.9,2.9-5.5,4.8-9.1,6.4l-1.5,0.7l0.1,3c0.6,11.6,0.3,35.7-0.5,52.6c-2.2,43-9.5,79.5-24.2,121.7
		c-1.1,3-1.9,5.7-1.9,5.9c0,0.3-0.1,0.4-0.2,0.4C990.6,12786.4,990.5,12786.3,990.6,12786.1z M987.3,12711.5
		c4.1,1.6,8.6,0.5,11.5-2.8c2-2.2,2.7-4.3,2.6-7.3c-0.1-2.9-1.3-5.4-3.6-7.3c-6.5-5.6-16.5-1.3-17,7.3c-0.1,2.3,0.8,5.2,2.3,7.1
		C983.7,12709.4,986,12710.9,987.3,12711.5z"/>
	<path d="M997.3,12705.1c-0.3-2.5-1.4-4.6-3.2-6.5c-1.9-1.9-4.1-3-6.8-3.3l-1.5-0.2l0.7-0.4c2.1-1,4.2-1.2,6.3-0.6
		c1.3,0.4,1.5,0.5,3,1.8c1.5,1.3,1.6,1.4,2.2,2.9c0.9,2.2,0.9,4.8-0.2,6.9c-0.2,0.4-0.3,0.7-0.3,0.7
		C997.5,12706.4,997.4,12705.8,997.3,12705.1z"/>
	<path d="M989.9,12594.8c-0.7-1.9-1-5.5-1.1-13.6c-0.1-14.8,0.3-33.3,1.1-46.5c0.4-7.4,1.4-20.3,1.6-20.1c0.3,0.3,2,25.7,2.2,33.8
		c0.2,7.3,0.3,15.3,0.2,23.6c0,3.4-0.1,7.6,0,9.2c0,6.4-0.3,11-0.8,12.9c-0.3,1.1-1.2,2.1-1.8,2.2
		C990.7,12596.2,990.3,12595.8,989.9,12594.8z"/>
	<path d="M983.4,12519.3c-1.6-7.9-2.7-21.3-2.4-30.2c0.4-11.5,3-22.6,7.2-29.9c0.9-1.5,3.4-5.1,3.7-5.1c0.3,0,2.2,2.5,3.3,4.4
		c4.2,7.2,7,18.4,7.4,29.9c0.3,9.5-0.8,23.6-2.6,31.3c-0.3,1.2-0.5,2.2-0.6,2.2c0,0,0-3.1,0.1-6.9c0.2-7.3-0.1-13.3-0.8-18.2
		c-0.8-5.8-2.2-11.2-3.8-14.4c-0.8-1.8-2.6-4.4-2.9-4.3c-0.3,0-2.1,2.3-2.7,3.2c-3.1,5.6-5.3,16.3-5.4,25.8c0,1.1,0,3.1-0.1,4.4
		c0,1.3,0,4.2,0.2,6.5c0.1,2.3,0.2,4.1,0.1,4.1C984,12521.8,983.7,12520.6,983.4,12519.3z"/>
	<path d="M987,12519.4c-0.6-3.6-1.2-10.9-1.1-14.8c0.2-7.5,2.2-15,5.1-18.7l0.8-1l0.4,0.4c0.7,0.8,2.1,3.2,2.7,4.8
		c2.5,6.1,3.2,13.6,2.3,23.8c-0.3,2.8-1.1,7.8-1.3,7.8c-0.1,0-0.1-1.8,0-4.1c0.1-6.2-0.5-11.4-1.8-15.4c-0.6-1.9-1.1-3-1.8-3.7
		l-0.5-0.5l-0.8,1c-2.5,3.1-4,11.8-3.5,20.5c0.1,1.3,0.1,2.3,0,2.3C987.5,12521.7,987.2,12520.6,987,12519.4z"/>
</g>
</svg>
