<svg version="1" xmlns="http://www.w3.org/2000/svg" width="1166.667" height="1166.667" viewBox="0 0 875.000000 875.000000"><path d="M465.8.5c-.1.2-5 .6-10.8.9-5.8.3-11.5.8-12.7 1-1.2.3-4.8.7-8 1.1-7.2.7-10.6 1.3-20.8 3-7.7 1.4-10.1 1.9-15.5 3-1.4.3-3.5.7-4.8 1-7 1.3-27.8 7.1-39.8 11.1C248.5 56.3 168 126.1 117.9 226c-11.2 22.5-20.5 46.6-27.9 72.3-3.8 13.2-9.3 37.1-10.5 45.3-.4 2.1-.8 4.6-1 5.4-.2.8-.7 3.5-1 6-.3 2.5-1 7.2-1.5 10.5s-1.2 9.1-1.5 13c-.4 3.8-.8 8-1 9.3-2.6 16.5-2.7 90.6 0 111.8.2 1.6.6 6.5 1 10.9s.9 8.2 1 8.5c.2.3.7 3.5 1 7 .4 3.6.8 6.7 1 7 .2.3.7 3.3 1 6.5.4 3.3.9 6.3 1.1 6.6.2.4.6 2.4 1 4.5.9 6.3 4.3 21.1 7.5 33.4 14.6 55.4 41.2 107.4 77.3 151 8.1 9.9 32.1 34.2 41.6 42.2 41.2 34.8 88.2 59.6 145.5 76.7 9.9 2.9 25 6.8 30.3 7.7 1.5.3 4.7 1 7.2 1.6 4.5 1 5.6 1.2 12 2.3 14.9 2.5 21.8 3.5 30.5 4.5 5.5.5 12 1.2 14.5 1.5 21.1 2.3 82 2.4 93.5.1 1.1-.2 5.2-.7 9-1 25.6-2.5 59.4-9.8 88.8-19.2 39.4-12.7 89.9-37.9 113.8-56.9 1.4-1.1 4.1-3.1 5.9-4.5 3.1-2.3 15.4-12.7 20.8-17.6l2.4-2.1V572.9c-.1-108.6-.1-199.1-.1-201.1l-.1-3.8-160.5.1H460l-.1 5.2c-.5 60.8-.2 175.7.6 176 .6.2 28.4.3 61.8.3 33.5-.1 61.1.3 61.4.8.4.6.7 97.4.4 113.2-.1 2.6-.8 3.4-5.1 5.7-2.8 1.5-7.9 3.8-11.4 5.1-5.5 2.1-8.9 3-19.6 5.1-12.9 2.6-47.5 2.6-69-.1-7-.8-11.5-1.5-13-1.9-.8-.2-3.1-.6-5-.9-20.3-3.2-45.8-12.2-64.2-22.6-15.8-9-33.7-23.7-44.5-36.7-1-1.2-2.5-3-3.3-4-7.7-9.2-18.7-27.6-25.4-42.2-5.5-12.3-13.6-37.2-16.1-50.2-2.9-14.7-4-20.9-5-29.9-.3-2.5-.7-6.1-1-8-2.6-17.6-2.6-75.7 0-92.3.4-2.6 1.4-9.8 2-14.9.3-2.1 1.6-9 3.1-15.5 1.4-6.5 2.7-12.7 3-13.8.2-1.1 1.9-6.7 3.8-12.5 15.4-47.5 41.3-84.1 78.1-110.1 4.8-3.5 17.5-11.3 18.5-11.5.3 0 3.7-1.5 7.5-3.3 12.1-5.7 13.5-6.2 23.9-9.2 9.3-2.7 20.9-5.2 30.3-6.5 6.8-1 47.6-1.2 53.8-.3 22 3.4 34.2 6.3 47 11.4 21.5 8.5 45.6 23.5 67.3 41.8 5.1 4.4 9.5 7.7 9.6 7.5.7-.9 22.6-27.8 31.8-38.9 5.7-6.9 11.9-14.5 13.8-16.9 1.9-2.4 18.6-22.8 37.1-45.4l33.6-41.1-4.7-4.5c-39.6-38.1-91.2-69.5-144.5-87.8-12.3-4.3-34.5-10-45.5-11.8-1.4-.2-3.4-.6-4.6-.9-3.9-.9-22-3.4-28.9-4-3.8-.4-8.1-.9-9.5-1.2-2.8-.5-61.6-1.3-62.2-.8z"/></svg>